<svg width="90" height="40" viewBox="0 0 90 40" fill="none" xmlns="http://www.w3.org/2000/svg">
<path d="M0.5 4.5C0.5 2.567 2.067 1 4 1H86C87.933 1 89.5 2.567 89.5 4.5V35.5C89.5 37.433 87.933 39 86 39H4C2.067 39 0.5 37.433 0.5 35.5V4.5Z" fill="#62D0B6"/>
<path d="M0.5 4.5C0.5 2.567 2.067 1 4 1H86C87.933 1 89.5 2.567 89.5 4.5V35.5C89.5 37.433 87.933 39 86 39H4C2.067 39 0.5 37.433 0.5 35.5V4.5Z" stroke="#62D0B6"/>
<path d="M17.1805 24.64C16.3685 24.64 15.6872 24.5187 15.1365 24.276C14.5858 24.024 14.1612 23.702 13.8625 23.31C13.5732 22.9087 13.4192 22.484 13.4005 22.036C13.4005 21.9613 13.4285 21.896 13.4845 21.84C13.5498 21.7747 13.6245 21.742 13.7085 21.742H14.4225C14.5345 21.742 14.6185 21.77 14.6745 21.826C14.7305 21.882 14.7678 21.9473 14.7865 22.022C14.8332 22.246 14.9452 22.47 15.1225 22.694C15.3092 22.9087 15.5658 23.0907 15.8925 23.24C16.2285 23.38 16.6578 23.45 17.1805 23.45C17.9832 23.45 18.5712 23.31 18.9445 23.03C19.3272 22.7407 19.5185 22.358 19.5185 21.882C19.5185 21.5553 19.4158 21.294 19.2105 21.098C19.0145 20.8927 18.7112 20.7107 18.3005 20.552C17.8898 20.3933 17.3578 20.2207 16.7045 20.034C16.0232 19.838 15.4585 19.6233 15.0105 19.39C14.5625 19.1567 14.2265 18.8673 14.0025 18.522C13.7878 18.1767 13.6805 17.738 13.6805 17.206C13.6805 16.702 13.8158 16.254 14.0865 15.862C14.3572 15.4607 14.7445 15.1433 15.2485 14.91C15.7618 14.6767 16.3825 14.56 17.1105 14.56C17.6892 14.56 18.1932 14.6393 18.6225 14.798C19.0612 14.9473 19.4252 15.1527 19.7145 15.414C20.0038 15.666 20.2232 15.9413 20.3725 16.24C20.5218 16.5293 20.6012 16.814 20.6105 17.094C20.6105 17.1593 20.5872 17.2247 20.5405 17.29C20.4938 17.346 20.4192 17.374 20.3165 17.374H19.5745C19.5092 17.374 19.4392 17.3553 19.3645 17.318C19.2992 17.2807 19.2478 17.2107 19.2105 17.108C19.1545 16.7253 18.9398 16.4033 18.5665 16.142C18.1932 15.8807 17.7078 15.75 17.1105 15.75C16.5038 15.75 16.0092 15.8667 15.6265 16.1C15.2532 16.3333 15.0665 16.6973 15.0665 17.192C15.0665 17.5093 15.1552 17.7753 15.3325 17.99C15.5098 18.1953 15.7898 18.3773 16.1725 18.536C16.5552 18.6947 17.0545 18.8627 17.6705 19.04C18.4172 19.2453 19.0285 19.4647 19.5045 19.698C19.9805 19.922 20.3305 20.2067 20.5545 20.552C20.7878 20.888 20.9045 21.322 20.9045 21.854C20.9045 22.442 20.7505 22.946 20.4425 23.366C20.1345 23.7767 19.7005 24.094 19.1405 24.318C18.5898 24.5327 17.9365 24.64 17.1805 24.64ZM25.2735 24.64C24.6762 24.64 24.1675 24.5093 23.7475 24.248C23.3368 23.9773 23.0242 23.604 22.8095 23.128C22.5948 22.652 22.4875 22.106 22.4875 21.49V17.542C22.4875 17.4487 22.5155 17.374 22.5715 17.318C22.6368 17.2527 22.7162 17.22 22.8095 17.22H23.5095C23.6028 17.22 23.6775 17.2527 23.7335 17.318C23.7988 17.374 23.8315 17.4487 23.8315 17.542V21.42C23.8315 22.8107 24.4382 23.506 25.6515 23.506C26.2302 23.506 26.6922 23.324 27.0375 22.96C27.3922 22.5867 27.5695 22.0733 27.5695 21.42V17.542C27.5695 17.4487 27.5975 17.374 27.6535 17.318C27.7188 17.2527 27.7982 17.22 27.8915 17.22H28.5775C28.6802 17.22 28.7595 17.2527 28.8155 17.318C28.8715 17.374 28.8995 17.4487 28.8995 17.542V24.178C28.8995 24.2713 28.8715 24.3507 28.8155 24.416C28.7595 24.472 28.6802 24.5 28.5775 24.5H27.9335C27.8402 24.5 27.7608 24.472 27.6955 24.416C27.6395 24.3507 27.6115 24.2713 27.6115 24.178V23.562C27.3595 23.8887 27.0515 24.15 26.6875 24.346C26.3328 24.542 25.8615 24.64 25.2735 24.64ZM34.5774 24.64C34.0174 24.64 33.5507 24.542 33.1774 24.346C32.804 24.1407 32.5054 23.8887 32.2814 23.59V24.178C32.2814 24.2713 32.2487 24.3507 32.1834 24.416C32.1274 24.472 32.0527 24.5 31.9594 24.5H31.3154C31.222 24.5 31.1427 24.472 31.0774 24.416C31.0214 24.3507 30.9934 24.2713 30.9934 24.178V14.882C30.9934 14.7887 31.0214 14.714 31.0774 14.658C31.1427 14.5927 31.222 14.56 31.3154 14.56H31.9874C32.09 14.56 32.1694 14.5927 32.2254 14.658C32.2814 14.714 32.3094 14.7887 32.3094 14.882V18.102C32.5427 17.8127 32.8414 17.57 33.2054 17.374C33.5787 17.178 34.036 17.08 34.5774 17.08C35.1 17.08 35.5434 17.1733 35.9074 17.36C36.2807 17.5373 36.584 17.7847 36.8174 18.102C37.06 18.4193 37.242 18.7787 37.3634 19.18C37.4847 19.5813 37.55 20.0013 37.5594 20.44C37.5687 20.5893 37.5734 20.7293 37.5734 20.86C37.5734 20.9907 37.5687 21.1307 37.5594 21.28C37.55 21.728 37.4847 22.1527 37.3634 22.554C37.242 22.9553 37.06 23.3147 36.8174 23.632C36.584 23.94 36.2807 24.1873 35.9074 24.374C35.5434 24.5513 35.1 24.64 34.5774 24.64ZM34.2834 23.506C34.7687 23.506 35.1467 23.4033 35.4174 23.198C35.6974 22.9833 35.898 22.708 36.0194 22.372C36.1407 22.0267 36.2107 21.658 36.2294 21.266C36.2387 20.9953 36.2387 20.7247 36.2294 20.454C36.2107 20.062 36.1407 19.698 36.0194 19.362C35.898 19.0167 35.6974 18.7413 35.4174 18.536C35.1467 18.3213 34.7687 18.214 34.2834 18.214C33.8447 18.214 33.4807 18.3167 33.1914 18.522C32.902 18.7273 32.6827 18.9887 32.5334 19.306C32.3934 19.6233 32.3187 19.9453 32.3094 20.272C32.3 20.4213 32.2954 20.6033 32.2954 20.818C32.2954 21.0233 32.3 21.2007 32.3094 21.35C32.328 21.6953 32.4027 22.036 32.5334 22.372C32.6734 22.6987 32.8834 22.9693 33.1634 23.184C33.4527 23.3987 33.826 23.506 34.2834 23.506ZM41.8255 24.64C41.3029 24.64 40.8549 24.5747 40.4815 24.444C40.1082 24.3133 39.8049 24.1547 39.5715 23.968C39.3382 23.7813 39.1609 23.5947 39.0395 23.408C38.9275 23.2213 38.8669 23.072 38.8575 22.96C38.8482 22.8573 38.8809 22.778 38.9555 22.722C39.0302 22.666 39.1049 22.638 39.1795 22.638H39.7955C39.8515 22.638 39.8935 22.6473 39.9215 22.666C39.9589 22.6753 40.0055 22.7127 40.0615 22.778C40.1829 22.9087 40.3182 23.0393 40.4675 23.17C40.6169 23.3007 40.7989 23.408 41.0135 23.492C41.2375 23.576 41.5129 23.618 41.8395 23.618C42.3155 23.618 42.7075 23.5293 43.0155 23.352C43.3235 23.1653 43.4775 22.8947 43.4775 22.54C43.4775 22.3067 43.4122 22.12 43.2815 21.98C43.1602 21.84 42.9362 21.714 42.6095 21.602C42.2922 21.49 41.8535 21.3733 41.2935 21.252C40.7335 21.1213 40.2902 20.9627 39.9635 20.776C39.6369 20.58 39.4035 20.3513 39.2635 20.09C39.1235 19.8193 39.0535 19.516 39.0535 19.18C39.0535 18.8347 39.1562 18.5033 39.3615 18.186C39.5669 17.8593 39.8655 17.5933 40.2575 17.388C40.6589 17.1827 41.1582 17.08 41.7555 17.08C42.2409 17.08 42.6562 17.1407 43.0015 17.262C43.3469 17.3833 43.6315 17.5373 43.8555 17.724C44.0795 17.9013 44.2475 18.0787 44.3595 18.256C44.4715 18.4333 44.5322 18.5827 44.5415 18.704C44.5509 18.7973 44.5229 18.8767 44.4575 18.942C44.3922 18.998 44.3175 19.026 44.2335 19.026H43.6455C43.5802 19.026 43.5242 19.012 43.4775 18.984C43.4402 18.956 43.4029 18.9233 43.3655 18.886C43.2722 18.7647 43.1602 18.6433 43.0295 18.522C42.9082 18.4007 42.7449 18.3027 42.5395 18.228C42.3435 18.144 42.0822 18.102 41.7555 18.102C41.2889 18.102 40.9389 18.2 40.7055 18.396C40.4722 18.592 40.3555 18.8393 40.3555 19.138C40.3555 19.3153 40.4069 19.474 40.5095 19.614C40.6122 19.754 40.8082 19.88 41.0975 19.992C41.3869 20.104 41.8162 20.2253 42.3855 20.356C43.0015 20.4773 43.4869 20.6407 43.8415 20.846C44.1962 21.0513 44.4482 21.2893 44.5975 21.56C44.7469 21.8307 44.8215 22.1433 44.8215 22.498C44.8215 22.89 44.7049 23.2493 44.4715 23.576C44.2475 23.9027 43.9115 24.164 43.4635 24.36C43.0249 24.5467 42.4789 24.64 41.8255 24.64ZM49.3823 24.64C48.7196 24.64 48.1456 24.514 47.6603 24.262C47.1843 24.0007 46.8156 23.632 46.5543 23.156C46.2929 22.6707 46.1529 22.092 46.1343 21.42C46.1249 21.28 46.1203 21.0933 46.1203 20.86C46.1203 20.6267 46.1249 20.44 46.1343 20.3C46.1529 19.628 46.2929 19.054 46.5543 18.578C46.8156 18.0927 47.1843 17.724 47.6603 17.472C48.1456 17.2107 48.7196 17.08 49.3823 17.08C49.9236 17.08 50.3856 17.1547 50.7683 17.304C51.1603 17.4533 51.4823 17.6447 51.7343 17.878C51.9863 18.1113 52.1729 18.3633 52.2943 18.634C52.4249 18.9047 52.4949 19.1613 52.5043 19.404C52.5136 19.4973 52.4856 19.572 52.4203 19.628C52.3549 19.684 52.2756 19.712 52.1823 19.712H51.5103C51.4169 19.712 51.3469 19.6933 51.3003 19.656C51.2536 19.6093 51.2069 19.5347 51.1603 19.432C50.9923 18.9747 50.7636 18.6527 50.4743 18.466C50.1849 18.2793 49.8256 18.186 49.3963 18.186C48.8363 18.186 48.3789 18.3587 48.0243 18.704C47.6789 19.0493 47.4923 19.6047 47.4642 20.37C47.4549 20.706 47.4549 21.0327 47.4642 21.35C47.4923 22.1247 47.6789 22.6847 48.0243 23.03C48.3789 23.366 48.8363 23.534 49.3963 23.534C49.8256 23.534 50.1849 23.4407 50.4743 23.254C50.7636 23.0673 50.9923 22.7453 51.1603 22.288C51.2069 22.1853 51.2536 22.1153 51.3003 22.078C51.3469 22.0313 51.4169 22.008 51.5103 22.008H52.1823C52.2756 22.008 52.3549 22.036 52.4203 22.092C52.4856 22.148 52.5136 22.2227 52.5043 22.316C52.4949 22.512 52.4529 22.7127 52.3783 22.918C52.3036 23.1233 52.1823 23.3333 52.0143 23.548C51.8556 23.7533 51.6549 23.94 51.4123 24.108C51.1696 24.2667 50.8756 24.3973 50.5303 24.5C50.1943 24.5933 49.8116 24.64 49.3823 24.64ZM54.4889 24.5C54.3955 24.5 54.3162 24.472 54.2509 24.416C54.1949 24.3507 54.1669 24.2713 54.1669 24.178V17.556C54.1669 17.4627 54.1949 17.3833 54.2509 17.318C54.3162 17.2527 54.3955 17.22 54.4889 17.22H55.1329C55.2262 17.22 55.3055 17.2527 55.3709 17.318C55.4362 17.3833 55.4689 17.4627 55.4689 17.556V18.172C55.6555 17.8547 55.9122 17.6167 56.2389 17.458C56.5655 17.2993 56.9575 17.22 57.4149 17.22H57.9749C58.0682 17.22 58.1429 17.2527 58.1989 17.318C58.2549 17.374 58.2829 17.4487 58.2829 17.542V18.116C58.2829 18.2093 58.2549 18.284 58.1989 18.34C58.1429 18.396 58.0682 18.424 57.9749 18.424H57.1349C56.6309 18.424 56.2342 18.5733 55.9449 18.872C55.6555 19.1613 55.5109 19.558 55.5109 20.062V24.178C55.5109 24.2713 55.4782 24.3507 55.4129 24.416C55.3475 24.472 55.2682 24.5 55.1749 24.5H54.4889ZM59.8072 24.5C59.7139 24.5 59.6346 24.472 59.5692 24.416C59.5132 24.3507 59.4852 24.2713 59.4852 24.178V17.542C59.4852 17.4487 59.5132 17.374 59.5692 17.318C59.6346 17.2527 59.7139 17.22 59.8072 17.22H60.4792C60.5726 17.22 60.6472 17.2527 60.7032 17.318C60.7592 17.374 60.7872 17.4487 60.7872 17.542V24.178C60.7872 24.2713 60.7592 24.3507 60.7032 24.416C60.6472 24.472 60.5726 24.5 60.4792 24.5H59.8072ZM59.6952 15.862C59.6019 15.862 59.5226 15.834 59.4572 15.778C59.4012 15.7127 59.3732 15.6333 59.3732 15.54V14.784C59.3732 14.6907 59.4012 14.616 59.4572 14.56C59.5226 14.4947 59.6019 14.462 59.6952 14.462H60.5772C60.6706 14.462 60.7452 14.4947 60.8012 14.56C60.8666 14.616 60.8992 14.6907 60.8992 14.784V15.54C60.8992 15.6333 60.8666 15.7127 60.8012 15.778C60.7452 15.834 60.6706 15.862 60.5772 15.862H59.6952ZM66.4738 24.64C65.9138 24.64 65.4472 24.542 65.0738 24.346C64.7005 24.1407 64.4018 23.8887 64.1778 23.59V24.178C64.1778 24.2713 64.1452 24.3507 64.0798 24.416C64.0238 24.472 63.9492 24.5 63.8558 24.5H63.2118C63.1185 24.5 63.0392 24.472 62.9738 24.416C62.9178 24.3507 62.8898 24.2713 62.8898 24.178V14.882C62.8898 14.7887 62.9178 14.714 62.9738 14.658C63.0392 14.5927 63.1185 14.56 63.2118 14.56H63.8838C63.9865 14.56 64.0658 14.5927 64.1218 14.658C64.1778 14.714 64.2058 14.7887 64.2058 14.882V18.102C64.4392 17.8127 64.7378 17.57 65.1018 17.374C65.4752 17.178 65.9325 17.08 66.4738 17.08C66.9965 17.08 67.4398 17.1733 67.8038 17.36C68.1772 17.5373 68.4805 17.7847 68.7138 18.102C68.9565 18.4193 69.1385 18.7787 69.2598 19.18C69.3812 19.5813 69.4465 20.0013 69.4558 20.44C69.4652 20.5893 69.4698 20.7293 69.4698 20.86C69.4698 20.9907 69.4652 21.1307 69.4558 21.28C69.4465 21.728 69.3812 22.1527 69.2598 22.554C69.1385 22.9553 68.9565 23.3147 68.7138 23.632C68.4805 23.94 68.1772 24.1873 67.8038 24.374C67.4398 24.5513 66.9965 24.64 66.4738 24.64ZM66.1798 23.506C66.6652 23.506 67.0432 23.4033 67.3138 23.198C67.5938 22.9833 67.7945 22.708 67.9158 22.372C68.0372 22.0267 68.1072 21.658 68.1258 21.266C68.1352 20.9953 68.1352 20.7247 68.1258 20.454C68.1072 20.062 68.0372 19.698 67.9158 19.362C67.7945 19.0167 67.5938 18.7413 67.3138 18.536C67.0432 18.3213 66.6652 18.214 66.1798 18.214C65.7412 18.214 65.3772 18.3167 65.0878 18.522C64.7985 18.7273 64.5792 18.9887 64.4298 19.306C64.2898 19.6233 64.2152 19.9453 64.2058 20.272C64.1965 20.4213 64.1918 20.6033 64.1918 20.818C64.1918 21.0233 64.1965 21.2007 64.2058 21.35C64.2245 21.6953 64.2992 22.036 64.4298 22.372C64.5698 22.6987 64.7798 22.9693 65.0598 23.184C65.3492 23.3987 65.7225 23.506 66.1798 23.506ZM74.1 24.64C73.1387 24.64 72.3733 24.346 71.804 23.758C71.2347 23.1607 70.922 22.3487 70.866 21.322C70.8567 21.2007 70.852 21.0467 70.852 20.86C70.852 20.664 70.8567 20.5053 70.866 20.384C70.9033 19.7213 71.0573 19.1427 71.328 18.648C71.5987 18.144 71.9673 17.7567 72.434 17.486C72.91 17.2153 73.4653 17.08 74.1 17.08C74.8093 17.08 75.402 17.2293 75.878 17.528C76.3633 17.8267 76.732 18.2513 76.984 18.802C77.236 19.3527 77.362 19.9967 77.362 20.734V20.972C77.362 21.0747 77.3293 21.154 77.264 21.21C77.208 21.266 77.1333 21.294 77.04 21.294H72.196C72.196 21.3033 72.196 21.322 72.196 21.35C72.196 21.378 72.196 21.4013 72.196 21.42C72.2147 21.8027 72.2987 22.162 72.448 22.498C72.5973 22.8247 72.812 23.0907 73.092 23.296C73.372 23.5013 73.708 23.604 74.1 23.604C74.436 23.604 74.716 23.5527 74.94 23.45C75.164 23.3473 75.346 23.2353 75.486 23.114C75.626 22.9833 75.7193 22.8853 75.766 22.82C75.85 22.6987 75.9153 22.6287 75.962 22.61C76.0087 22.582 76.0833 22.568 76.186 22.568H76.858C76.9513 22.568 77.026 22.596 77.082 22.652C77.1473 22.6987 77.1753 22.7687 77.166 22.862C77.1567 23.002 77.082 23.1747 76.942 23.38C76.802 23.576 76.6013 23.772 76.34 23.968C76.0787 24.164 75.7613 24.3273 75.388 24.458C75.0147 24.5793 74.5853 24.64 74.1 24.64ZM72.196 20.328H76.032V20.286C76.032 19.866 75.9527 19.4927 75.794 19.166C75.6447 18.8393 75.4253 18.5827 75.136 18.396C74.8467 18.2 74.5013 18.102 74.1 18.102C73.6987 18.102 73.3533 18.2 73.064 18.396C72.784 18.5827 72.5693 18.8393 72.42 19.166C72.2707 19.4927 72.196 19.866 72.196 20.286V20.328Z" fill="white"/>
</svg>
