<svg width="107" height="38" viewBox="0 0 107 38" fill="none" xmlns="http://www.w3.org/2000/svg">
<path d="M0.5 4C0.5 2.067 2.067 0.5 4 0.5H103C104.933 0.5 106.5 2.067 106.5 4V34C106.5 35.933 104.933 37.5 103 37.5H4C2.06701 37.5 0.5 35.933 0.5 34V4Z" stroke="#62D0B6"/>
<path d="M26.6412 26.0002C26.4647 26.0002 26.2882 25.9322 26.1524 25.7961L20.8707 20.5035C20.7485 20.3811 20.667 20.2042 20.667 20.0137C20.667 19.8368 20.7349 19.6191 20.8707 19.4967L26.1524 14.2041C26.424 13.932 26.8584 13.932 27.13 14.2041C27.4015 14.4762 27.4015 14.9116 27.13 15.1837L22.3099 20.0001L27.13 24.8301C27.4015 25.1022 27.4015 25.5376 27.13 25.8097C26.9942 25.9322 26.8177 26.0002 26.6412 26.0002Z" fill="#62D0B6"/>
<path d="M44.9405 25C44.8005 25 44.6885 24.9673 44.6045 24.902C44.5299 24.8367 44.4692 24.748 44.4225 24.636L41.3005 15.634C41.2819 15.578 41.2725 15.5267 41.2725 15.48C41.2725 15.4053 41.3005 15.34 41.3565 15.284C41.4125 15.228 41.4779 15.2 41.5525 15.2H42.2805C42.3925 15.2 42.4765 15.2327 42.5325 15.298C42.5979 15.354 42.6352 15.4053 42.6445 15.452L45.3885 23.39L48.1325 15.452C48.1512 15.4053 48.1885 15.354 48.2445 15.298C48.3005 15.2327 48.3845 15.2 48.4965 15.2H49.2245C49.2992 15.2 49.3645 15.228 49.4205 15.284C49.4859 15.34 49.5185 15.4053 49.5185 15.48C49.5185 15.5267 49.5092 15.578 49.4905 15.634L46.3545 24.636C46.3172 24.748 46.2565 24.8367 46.1725 24.902C46.0979 24.9673 45.9905 25 45.8505 25H44.9405ZM51.151 25C51.0576 25 50.9783 24.972 50.913 24.916C50.857 24.8507 50.829 24.7713 50.829 24.678V18.042C50.829 17.9487 50.857 17.874 50.913 17.818C50.9783 17.7527 51.0576 17.72 51.151 17.72H51.823C51.9163 17.72 51.991 17.7527 52.047 17.818C52.103 17.874 52.131 17.9487 52.131 18.042V24.678C52.131 24.7713 52.103 24.8507 52.047 24.916C51.991 24.972 51.9163 25 51.823 25H51.151ZM51.039 16.362C50.9456 16.362 50.8663 16.334 50.801 16.278C50.745 16.2127 50.717 16.1333 50.717 16.04V15.284C50.717 15.1907 50.745 15.116 50.801 15.06C50.8663 14.9947 50.9456 14.962 51.039 14.962H51.921C52.0143 14.962 52.089 14.9947 52.145 15.06C52.2103 15.116 52.243 15.1907 52.243 15.284V16.04C52.243 16.1333 52.2103 16.2127 52.145 16.278C52.089 16.334 52.0143 16.362 51.921 16.362H51.039ZM57.1449 25.14C56.1836 25.14 55.4183 24.846 54.8489 24.258C54.2796 23.6607 53.9669 22.8487 53.9109 21.822C53.9016 21.7007 53.8969 21.5467 53.8969 21.36C53.8969 21.164 53.9016 21.0053 53.9109 20.884C53.9483 20.2213 54.1023 19.6427 54.3729 19.148C54.6436 18.644 55.0123 18.2567 55.4789 17.986C55.9549 17.7153 56.5103 17.58 57.1449 17.58C57.8543 17.58 58.4469 17.7293 58.9229 18.028C59.4083 18.3267 59.7769 18.7513 60.0289 19.302C60.2809 19.8527 60.4069 20.4967 60.4069 21.234V21.472C60.4069 21.5747 60.3743 21.654 60.3089 21.71C60.2529 21.766 60.1783 21.794 60.0849 21.794H55.2409C55.2409 21.8033 55.2409 21.822 55.2409 21.85C55.2409 21.878 55.2409 21.9013 55.2409 21.92C55.2596 22.3027 55.3436 22.662 55.4929 22.998C55.6423 23.3247 55.8569 23.5907 56.1369 23.796C56.4169 24.0013 56.7529 24.104 57.1449 24.104C57.4809 24.104 57.7609 24.0527 57.9849 23.95C58.2089 23.8473 58.3909 23.7353 58.5309 23.614C58.6709 23.4833 58.7643 23.3853 58.8109 23.32C58.8949 23.1987 58.9603 23.1287 59.0069 23.11C59.0536 23.082 59.1283 23.068 59.2309 23.068H59.9029C59.9963 23.068 60.0709 23.096 60.1269 23.152C60.1923 23.1987 60.2203 23.2687 60.2109 23.362C60.2016 23.502 60.1269 23.6747 59.9869 23.88C59.8469 24.076 59.6463 24.272 59.3849 24.468C59.1236 24.664 58.8063 24.8273 58.4329 24.958C58.0596 25.0793 57.6303 25.14 57.1449 25.14ZM55.2409 20.828H59.0769V20.786C59.0769 20.366 58.9976 19.9927 58.8389 19.666C58.6896 19.3393 58.4703 19.0827 58.1809 18.896C57.8916 18.7 57.5463 18.602 57.1449 18.602C56.7436 18.602 56.3983 18.7 56.1089 18.896C55.8289 19.0827 55.6143 19.3393 55.4649 19.666C55.3156 19.9927 55.2409 20.366 55.2409 20.786V20.828ZM63.8215 25C63.7002 25 63.6068 24.972 63.5415 24.916C63.4762 24.8507 63.4202 24.762 63.3735 24.65L61.3855 18.154C61.3668 18.1073 61.3575 18.0607 61.3575 18.014C61.3575 17.93 61.3855 17.86 61.4415 17.804C61.5068 17.748 61.5768 17.72 61.6515 17.72H62.2675C62.3702 17.72 62.4495 17.748 62.5055 17.804C62.5615 17.86 62.5988 17.9113 62.6175 17.958L64.1715 23.236L65.8375 18.014C65.8562 17.9487 65.8935 17.8833 65.9495 17.818C66.0148 17.7527 66.1082 17.72 66.2295 17.72H66.7055C66.8268 17.72 66.9202 17.7527 66.9855 17.818C67.0508 17.8833 67.0882 17.9487 67.0975 18.014L68.7635 23.236L70.3175 17.958C70.3268 17.9113 70.3595 17.86 70.4155 17.804C70.4715 17.748 70.5508 17.72 70.6535 17.72H71.2695C71.3535 17.72 71.4235 17.748 71.4795 17.804C71.5355 17.86 71.5635 17.93 71.5635 18.014C71.5635 18.0607 71.5542 18.1073 71.5355 18.154L69.5475 24.65C69.5195 24.762 69.4682 24.8507 69.3935 24.916C69.3282 24.972 69.2302 25 69.0995 25H68.5535C68.4322 25 68.3295 24.972 68.2455 24.916C68.1708 24.8507 68.1195 24.762 68.0915 24.65L66.4675 19.638L64.8435 24.65C64.8062 24.762 64.7502 24.8507 64.6755 24.916C64.6008 24.972 64.4982 25 64.3675 25H63.8215ZM75.3725 25C75.2978 25 75.2325 24.972 75.1765 24.916C75.1205 24.86 75.0925 24.7947 75.0925 24.72C75.0925 24.6733 75.0972 24.622 75.1065 24.566L78.5785 15.508C78.6158 15.4147 78.6672 15.34 78.7325 15.284C78.7978 15.228 78.8958 15.2 79.0265 15.2H79.9785C80.0998 15.2 80.1932 15.228 80.2585 15.284C80.3332 15.34 80.3892 15.4147 80.4265 15.508L83.8845 24.566C83.9032 24.622 83.9125 24.6733 83.9125 24.72C83.9125 24.7947 83.8845 24.86 83.8285 24.916C83.7725 24.972 83.7072 25 83.6325 25H82.9185C82.8065 25 82.7225 24.972 82.6665 24.916C82.6198 24.86 82.5872 24.8087 82.5685 24.762L81.7985 22.774H77.2065L76.4365 24.762C76.4272 24.8087 76.3945 24.86 76.3385 24.916C76.2825 24.972 76.1985 25 76.0865 25H75.3725ZM77.6125 21.57H81.3925L79.5025 16.6L77.6125 21.57ZM85.5634 25C85.4701 25 85.3907 24.972 85.3254 24.916C85.2694 24.8507 85.2414 24.7713 85.2414 24.678V15.382C85.2414 15.2887 85.2694 15.214 85.3254 15.158C85.3907 15.0927 85.4701 15.06 85.5634 15.06H86.2214C86.3241 15.06 86.4034 15.0927 86.4594 15.158C86.5154 15.214 86.5434 15.2887 86.5434 15.382V24.678C86.5434 24.7713 86.5154 24.8507 86.4594 24.916C86.4034 24.972 86.3241 25 86.2214 25H85.5634ZM88.9677 25C88.8744 25 88.795 24.972 88.7297 24.916C88.6737 24.8507 88.6457 24.7713 88.6457 24.678V15.382C88.6457 15.2887 88.6737 15.214 88.7297 15.158C88.795 15.0927 88.8744 15.06 88.9677 15.06H89.6257C89.7284 15.06 89.8077 15.0927 89.8637 15.158C89.9197 15.214 89.9477 15.2887 89.9477 15.382V24.678C89.9477 24.7713 89.9197 24.8507 89.8637 24.916C89.8077 24.972 89.7284 25 89.6257 25H88.9677Z" fill="#62D0B6"/>
</svg>
