<svg width="64" height="64" viewBox="0 0 64 64" fill="none" xmlns="http://www.w3.org/2000/svg">
<rect width="64" height="64" rx="32" fill="#D6F8F0" fill-opacity="0.5"/>
<path d="M42.8663 43.7772H21.1346C19.8341 43.7755 18.5873 43.258 17.6677 42.3383C16.7482 41.4186 16.2309 40.1717 16.2295 38.8711V25.1285C16.2309 23.828 16.7482 22.5812 17.6678 21.6616C18.5874 20.742 19.8342 20.2248 21.1346 20.2233H42.8663C44.1669 20.2248 45.4137 20.742 46.3335 21.6616C47.2532 22.5811 47.7707 23.8279 47.7724 25.1285V38.8711C47.7709 40.1718 47.2535 41.4189 46.3338 42.3386C45.414 43.2584 44.167 43.7757 42.8663 43.7772ZM21.1346 22.509C20.4401 22.5098 19.7743 22.786 19.2832 23.2771C18.7921 23.7681 18.5159 24.434 18.5152 25.1285V38.8711C18.5157 39.5658 18.7918 40.2318 19.2829 40.7231C19.774 41.2144 20.44 41.4907 21.1346 41.4914H42.8663C43.561 41.4907 44.2271 41.2144 44.7184 40.7232C45.2096 40.2319 45.4859 39.5658 45.4866 38.8711V25.1285C45.4857 24.4339 45.2093 23.7681 44.718 23.277C44.2268 22.7859 43.5609 22.5098 42.8663 22.509H21.1346Z" fill="#62D0B6"/>
<path d="M31.9866 35.0763C31.0277 35.0858 30.0936 34.7717 29.3352 34.1849L17.113 24.445C16.876 24.256 16.7238 23.9806 16.6898 23.6793C16.6559 23.378 16.743 23.0756 16.932 22.8386C17.121 22.6016 17.3964 22.4493 17.6977 22.4154C17.999 22.3814 18.3014 22.4686 18.5384 22.6576L30.7569 32.3975C31.1179 32.6535 31.5497 32.7905 31.9922 32.7893C32.4347 32.7882 32.8659 32.6489 33.2255 32.3911L45.2931 22.6622C45.529 22.4719 45.8307 22.3832 46.1319 22.4154C46.4332 22.4476 46.7093 22.5982 46.8995 22.834C47.0898 23.0699 47.1785 23.3716 47.1463 23.6728C47.1141 23.9741 46.9635 24.2502 46.7277 24.4404L34.6636 34.1693C33.9 34.7665 32.956 35.0863 31.9866 35.0763Z" fill="#62D0B6"/>
</svg>
