<svg width="17" height="16" viewBox="0 0 17 16" fill="none" xmlns="http://www.w3.org/2000/svg">
<path fill-rule="evenodd" clip-rule="evenodd" d="M4.04229 4.56394C4.03235 4.45393 4.04543 4.34304 4.08071 4.23836C4.11599 4.13368 4.17269 4.0375 4.24719 3.95594C4.32169 3.87438 4.41237 3.80924 4.51344 3.76466C4.61451 3.72008 4.72376 3.69705 4.83422 3.69702H14.476C14.5951 3.69707 14.7127 3.72386 14.82 3.77542C14.9274 3.82698 15.0218 3.90198 15.0962 3.99489C15.1707 4.08781 15.2234 4.19627 15.2504 4.31226C15.2773 4.42825 15.2779 4.54882 15.2521 4.66506L14.4374 8.33727C14.2972 8.96833 13.946 9.53272 13.4418 9.9372C12.9375 10.3417 12.3104 10.5621 11.6639 10.5619H7.17934C6.47022 10.562 5.78673 10.2968 5.26321 9.81848C4.7397 9.34016 4.41402 8.68333 4.3502 7.97709L4.04229 4.56394ZM5.2069 4.83322L5.48186 7.87483C5.52017 8.29877 5.71573 8.69303 6.03008 8.98005C6.34443 9.26706 6.75481 9.42606 7.18048 9.42575H11.6651C12.0528 9.42565 12.429 9.29332 12.7314 9.0506C13.0338 8.80787 13.2444 8.46928 13.3285 8.09071L14.0522 4.83322H5.2069Z" fill="white"/>
<path fill-rule="evenodd" clip-rule="evenodd" d="M1.69238 1.79015C1.69238 1.63948 1.75224 1.49498 1.85878 1.38844C1.96532 1.2819 2.10981 1.22205 2.26048 1.22205H4.25338C4.39234 1.22219 4.52643 1.27326 4.63028 1.36559C4.73413 1.45792 4.80054 1.58512 4.81694 1.72311L5.27369 5.58733C5.29132 5.7371 5.24873 5.88773 5.15529 6.0061C5.06186 6.12446 4.92523 6.20086 4.77546 6.21849C4.6257 6.23612 4.47506 6.19353 4.3567 6.1001C4.23833 6.00666 4.16193 5.87003 4.1443 5.72027L3.74777 2.35711H2.26048C2.10981 2.35711 1.96532 2.29726 1.85878 2.19072C1.75224 2.08418 1.69238 1.94082 1.69238 1.79015ZM6.80529 13.5305C6.95596 13.5305 7.10046 13.4707 7.207 13.3641C7.31353 13.2576 7.37339 13.1131 7.37339 12.9624C7.37339 12.8117 7.31353 12.6672 7.207 12.5607C7.10046 12.4542 6.95596 12.3943 6.80529 12.3943C6.65462 12.3943 6.51012 12.4542 6.40358 12.5607C6.29704 12.6672 6.23719 12.8117 6.23719 12.9624C6.23719 13.1131 6.29704 13.2576 6.40358 13.3641C6.51012 13.4707 6.65462 13.5305 6.80529 13.5305ZM6.80529 14.6667C7.0291 14.6667 7.25072 14.6226 7.4575 14.537C7.66427 14.4513 7.85215 14.3258 8.01041 14.1675C8.16867 14.0093 8.29421 13.8214 8.37986 13.6146C8.46551 13.4078 8.50959 13.1862 8.50959 12.9624C8.50959 12.7386 8.46551 12.517 8.37986 12.3102C8.29421 12.1034 8.16867 11.9155 8.01041 11.7573C7.85215 11.599 7.66427 11.4735 7.4575 11.3878C7.25072 11.3022 7.0291 11.2581 6.80529 11.2581C6.35328 11.2581 5.91978 11.4377 5.60016 11.7573C5.28055 12.0769 5.10099 12.5104 5.10099 12.9624C5.10099 13.4144 5.28055 13.8479 5.60016 14.1675C5.91978 14.4872 6.35328 14.6667 6.80529 14.6667ZM11.9886 13.5305C12.1393 13.5305 12.2838 13.4707 12.3903 13.3641C12.4969 13.2576 12.5567 13.1131 12.5567 12.9624C12.5567 12.8117 12.4969 12.6672 12.3903 12.5607C12.2838 12.4542 12.1393 12.3943 11.9886 12.3943C11.838 12.3943 11.6935 12.4542 11.5869 12.5607C11.4804 12.6672 11.4205 12.8117 11.4205 12.9624C11.4205 13.1131 11.4804 13.2576 11.5869 13.3641C11.6935 13.4707 11.838 13.5305 11.9886 13.5305ZM11.9886 14.6667C12.2124 14.6667 12.4341 14.6226 12.6408 14.537C12.8476 14.4513 13.0355 14.3258 13.1938 14.1675C13.352 14.0093 13.4776 13.8214 13.5632 13.6146C13.6489 13.4078 13.6929 13.1862 13.6929 12.9624C13.6929 12.7386 13.6489 12.517 13.5632 12.3102C13.4776 12.1034 13.352 11.9155 13.1938 11.7573C13.0355 11.599 12.8476 11.4735 12.6408 11.3878C12.4341 11.3022 12.2124 11.2581 11.9886 11.2581C11.5366 11.2581 11.1031 11.4377 10.7835 11.7573C10.4639 12.0769 10.2843 12.5104 10.2843 12.9624C10.2843 13.4144 10.4639 13.8479 10.7835 14.1675C11.1031 14.4872 11.5366 14.6667 11.9886 14.6667Z" fill="white"/>
</svg>
