<svg width="290" height="14" viewBox="0 0 290 14" fill="none" xmlns="http://www.w3.org/2000/svg">
<g clip-path="url(#clip0_3583_273)">
<path d="M229.981 5.50829C229.937 5.3704 229.817 5.2699 229.674 5.24908L225.644 4.66345L223.842 1.01161C223.777 0.881607 223.645 0.799316 223.5 0.799316C223.355 0.799316 223.223 0.881607 223.158 1.01161L221.356 4.66345L217.326 5.24908C217.183 5.2699 217.063 5.3704 217.019 5.50827C216.974 5.64616 217.011 5.79752 217.115 5.8987L220.031 8.74127L219.343 12.7551C219.318 12.898 219.377 13.0423 219.494 13.1276C219.561 13.1758 219.639 13.2003 219.718 13.2003C219.779 13.2003 219.84 13.1859 219.895 13.1566L223.5 11.2615L227.104 13.1565C227.233 13.224 227.388 13.2128 227.506 13.1276C227.623 13.0423 227.682 12.8979 227.657 12.755L226.969 8.74127L229.885 5.89867C229.989 5.79752 230.026 5.64616 229.981 5.50829Z" fill="#D6D6D6"/>
</g>
<g clip-path="url(#clip1_3583_273)">
<path d="M244.981 5.50829C244.937 5.3704 244.817 5.2699 244.674 5.24908L240.644 4.66345L238.842 1.01161C238.777 0.881607 238.645 0.799316 238.5 0.799316C238.355 0.799316 238.223 0.881607 238.158 1.01161L236.356 4.66345L232.326 5.24908C232.183 5.2699 232.063 5.3704 232.019 5.50827C231.974 5.64616 232.011 5.79752 232.115 5.8987L235.031 8.74127L234.343 12.7551C234.318 12.898 234.377 13.0423 234.494 13.1276C234.561 13.1758 234.639 13.2003 234.718 13.2003C234.779 13.2003 234.84 13.1859 234.895 13.1566L238.5 11.2615L242.104 13.1565C242.233 13.224 242.388 13.2128 242.506 13.1276C242.623 13.0423 242.682 12.8979 242.657 12.755L241.969 8.74127L244.885 5.89867C244.989 5.79752 245.026 5.64616 244.981 5.50829Z" fill="#FFC62A"/>
</g>
<g clip-path="url(#clip2_3583_273)">
<path d="M259.981 5.50829C259.937 5.3704 259.817 5.2699 259.674 5.24908L255.644 4.66345L253.842 1.01161C253.777 0.881607 253.645 0.799316 253.5 0.799316C253.355 0.799316 253.223 0.881607 253.158 1.01161L251.356 4.66345L247.326 5.24908C247.183 5.2699 247.063 5.3704 247.019 5.50827C246.974 5.64616 247.011 5.79752 247.115 5.8987L250.031 8.74127L249.343 12.7551C249.318 12.898 249.377 13.0423 249.494 13.1276C249.561 13.1758 249.639 13.2003 249.718 13.2003C249.779 13.2003 249.84 13.1859 249.895 13.1566L253.5 11.2615L257.104 13.1565C257.233 13.224 257.388 13.2128 257.506 13.1276C257.623 13.0423 257.682 12.8979 257.657 12.755L256.969 8.74127L259.885 5.89867C259.989 5.79752 260.026 5.64616 259.981 5.50829Z" fill="#FFC62A"/>
</g>
<g clip-path="url(#clip3_3583_273)">
<path d="M274.981 5.50829C274.937 5.3704 274.817 5.2699 274.674 5.24908L270.644 4.66345L268.842 1.01161C268.777 0.881607 268.645 0.799316 268.5 0.799316C268.355 0.799316 268.223 0.881607 268.158 1.01161L266.356 4.66345L262.326 5.24908C262.183 5.2699 262.063 5.3704 262.019 5.50827C261.974 5.64616 262.011 5.79752 262.115 5.8987L265.031 8.74127L264.343 12.7551C264.318 12.898 264.377 13.0423 264.494 13.1276C264.561 13.1758 264.639 13.2003 264.718 13.2003C264.779 13.2003 264.84 13.1859 264.895 13.1566L268.5 11.2615L272.104 13.1565C272.233 13.224 272.388 13.2128 272.506 13.1276C272.623 13.0423 272.682 12.8979 272.657 12.755L271.969 8.74127L274.885 5.89867C274.989 5.79752 275.026 5.64616 274.981 5.50829Z" fill="#FFC62A"/>
</g>
<g clip-path="url(#clip4_3583_273)">
<path d="M289.981 5.50829C289.937 5.3704 289.817 5.2699 289.674 5.24908L285.644 4.66345L283.842 1.01161C283.777 0.881607 283.645 0.799316 283.5 0.799316C283.355 0.799316 283.223 0.881607 283.158 1.01161L281.356 4.66345L277.326 5.24908C277.183 5.2699 277.063 5.3704 277.019 5.50827C276.974 5.64616 277.011 5.79752 277.115 5.8987L280.031 8.74127L279.343 12.7551C279.318 12.898 279.377 13.0423 279.494 13.1276C279.561 13.1758 279.639 13.2003 279.718 13.2003C279.779 13.2003 279.84 13.1859 279.895 13.1566L283.5 11.2615L287.104 13.1565C287.233 13.224 287.388 13.2128 287.506 13.1276C287.623 13.0423 287.682 12.8979 287.657 12.755L286.969 8.74127L289.885 5.89867C289.989 5.79752 290.026 5.64616 289.981 5.50829Z" fill="#FFC62A"/>
</g>
<defs>
<clipPath id="clip0_3583_273">
<rect width="13" height="13" fill="white" transform="translate(217 0.5)"/>
</clipPath>
<clipPath id="clip1_3583_273">
<rect width="13" height="13" fill="white" transform="translate(232 0.5)"/>
</clipPath>
<clipPath id="clip2_3583_273">
<rect width="13" height="13" fill="white" transform="translate(247 0.5)"/>
</clipPath>
<clipPath id="clip3_3583_273">
<rect width="13" height="13" fill="white" transform="translate(262 0.5)"/>
</clipPath>
<clipPath id="clip4_3583_273">
<rect width="13" height="13" fill="white" transform="translate(277 0.5)"/>
</clipPath>
</defs>
</svg>
